<svg width="24" height="25" viewBox="0 0 24 25" fill="none" xmlns="http://www.w3.org/2000/svg">
<path d="M6.5 12.5444H2.5C2.36739 12.5444 2.24021 12.5971 2.14645 12.6909C2.05268 12.7846 2 12.9118 2 13.0444V20.5444H7V13.0444C7 12.9118 6.94732 12.7846 6.85355 12.6909C6.75978 12.5971 6.63261 12.5444 6.5 12.5444Z" fill="#C2352E"/>
<path d="M14 4.54443H10C9.86739 4.54443 9.74021 4.59711 9.64645 4.69088C9.55268 4.78465 9.5 4.91183 9.5 5.04443V20.5444H14.5V5.04443C14.5 4.91183 14.4473 4.78465 14.3536 4.69088C14.2598 4.59711 14.1326 4.54443 14 4.54443Z" fill="#C2352E"/>
<path d="M21.5 8.54443H17.5C17.3674 8.54443 17.2402 8.59711 17.1464 8.69088C17.0527 8.78465 17 8.91183 17 9.04443V20.5444H22V9.04443C22 8.91183 21.9473 8.78465 21.8536 8.69088C21.7598 8.59711 21.6326 8.54443 21.5 8.54443Z" fill="#C2352E"/>
</svg>
